<svg xmlns="http://www.w3.org/2000/svg" version="1.1" xmlns:xlink="http://www.w3.org/1999/xlink" xmlns:svgjs="http://svgjs.dev/svgjs" width="1500" height="291" viewBox="0 0 1500 291"><g transform="matrix(1,0,0,1,-0.9090909090909918,-1.831169355466784)"><svg viewBox="0 0 396 77" data-background-color="#000000" preserveAspectRatio="xMidYMid meet" height="291" width="1500" xmlns="http://www.w3.org/2000/svg" xmlns:xlink="http://www.w3.org/1999/xlink"><g id="tight-bounds" transform="matrix(1,0,0,1,0.2400000000000091,0.4845362212059854)"><svg viewBox="0 0 395.52 76.03092755758803" height="76.03092755758803" width="395.52"><g><svg viewBox="0 0 542.1412435985137 104.21597294199859" height="76.03092755758803" width="395.52"><g></g><g transform="matrix(1,0,0,1,0,14.403220573025855)"><svg viewBox="0 0 395.52 75.40953179594688" height="75.40953179594688" width="395.52"><g id="textblocktransform"><svg viewBox="0 0 395.52 75.40953179594688" height="75.40953179594688" width="395.52" id="textblock"><g><svg viewBox="0 0 395.52 75.40953179594688" height="75.40953179594688" width="395.52"><g transform="matrix(1,0,0,1,0,0)"><svg width="395.52" viewBox="2.23 -40.5 214.63000000000002 40.93" height="75.40953179594688" data-palette-color="url(#0b6cf1d4-673c-435e-9c36-982114b1126a)"><g class="wordmark-text-0" data-fill-palette-color="primary" id="text-0"></g></svg></g></svg></g></svg></g></svg></g><g transform="matrix(1,0,0,1,437.9252706565152,0)"><svg viewBox="0 0 104.21597294199859 104.21597294199859" height="104.21597294199859" width="104.21597294199859"><g><svg xmlns="http://www.w3.org/2000/svg" xmlns:xlink="http://www.w3.org/1999/xlink" version="1.1" x="0" y="0" viewBox="7.5 7.5 85 85" style="enable-background:new 0 0 100 100;" xml:space="preserve" height="104.21597294199859" width="104.21597294199859" class="icon-icon-0" data-fill-palette-color="accent" id="icon-0"></svg></g></svg></g></svg></g><defs></defs><mask id="cb1bbc12-269c-438f-9d57-a65f4d13beca"><g id="SvgjsG2971"><svg viewBox="0 0 395.52 76.03092755758803" height="76.03092755758803" width="395.52"><g><svg viewBox="0 0 542.1412435985137 104.21597294199859" height="76.03092755758803" width="395.52"><g><rect width="6.800509399995303" height="75.7865794549266" x="413.3223806282599" y="14.214696743535995" fill="white" opacity="1" stroke-width="0" stroke="transparent" fill-opacity="1" class="rect-yte-0" rx="1%" id="SvgjsRect2970" data-palette-color="url(#0b6cf1d4-673c-435e-9c36-982114b1126a)"></rect></g><g transform="matrix(1,0,0,1,0,14.403220573025855)"><svg viewBox="0 0 395.52 75.40953179594688" height="75.40953179594688" width="395.52"><g id="SvgjsG2969"><svg viewBox="0 0 395.52 75.40953179594688" height="75.40953179594688" width="395.52" id="SvgjsSvg2968"><g><svg viewBox="0 0 395.52 75.40953179594688" height="75.40953179594688" width="395.52"><g transform="matrix(1,0,0,1,0,0)"><svg width="395.52" viewBox="2.23 -40.5 214.63000000000002 40.93" height="75.40953179594688" data-palette-color="url(#0b6cf1d4-673c-435e-9c36-982114b1126a)"><g class="wordmark-text-0" data-fill-palette-color="primary" id="SvgjsG2967"><path d="M25.73-5.75L27.65-2.6Q25.6-0.95 23.13-0.26 20.65 0.43 17.7 0.43L17.7 0.43Q14.1 0.43 11.23-1.14 8.35-2.7 6.35-5.38 4.35-8.05 3.29-11.63 2.23-15.2 2.23-19.25L2.23-19.25Q2.23-23.03 3.19-26.41 4.15-29.8 6.13-32.36 8.1-34.93 11.13-36.43 14.15-37.93 18.28-37.93L18.28-37.93Q21.15-37.93 23.71-37.01 26.28-36.1 28.08-34.38L28.08-34.38 25.83-31.7Q24.63-32.5 22.81-33.1 21-33.7 18.68-33.7L18.68-33.7Q15.63-33.7 13.5-32.55 11.38-31.4 10.03-29.44 8.68-27.48 8.06-24.86 7.45-22.25 7.45-19.33L7.45-19.33Q7.45-17.6 7.73-15.79 8-13.98 8.56-12.25 9.13-10.53 10.01-9 10.9-7.48 12.11-6.33 13.33-5.18 14.88-4.5 16.43-3.83 18.35-3.83L18.35-3.83Q19.48-3.83 20.4-3.93 21.33-4.03 22.19-4.25 23.05-4.48 23.9-4.84 24.75-5.2 25.73-5.75L25.73-5.75ZM39.75-20.83L39.75 0 35 0 35-35 34.5-40 39.75-40.5 39.75-23.75 41.97-26.63Q42.95-27.18 44.3-27.55 45.65-27.93 47.25-27.93L47.25-27.93Q51-27.93 53-25.43 55-22.93 55-18.25L55-18.25 55 0 50.25 0 50.25-17.73Q50.25-19.4 49.96-20.58 49.67-21.75 49.15-22.5 48.62-23.25 47.85-23.59 47.07-23.93 46.1-23.93L46.1-23.93Q45.12-23.93 44.2-23.69 43.27-23.45 42.45-23.04 41.62-22.63 40.94-22.06 40.25-21.5 39.75-20.83L39.75-20.83ZM69.75-26.88L69.75 0 65 0 65-26.38 69.75-26.88ZM64.84-32.5L64.84-37.5 69.9-37.5 69.9-32.5 64.84-32.5ZM84.74-23.5L84.74-9.4Q84.74-7.75 84.93-6.64 85.12-5.53 85.48-4.84 85.84-4.15 86.38-3.86 86.92-3.58 87.62-3.58L87.62-3.58Q88.17-3.58 88.62-3.64 89.07-3.7 89.39-3.8L89.39-3.8Q89.77-3.9 90.07-4.03L90.07-4.03 91.79-1Q91.59-0.8 91.16-0.56 90.72-0.33 90.12-0.1 89.52 0.13 88.76 0.28 87.99 0.43 87.12 0.43L87.12 0.43Q84.87 0.43 83.47-0.4 82.07-1.23 81.29-2.65 80.52-4.08 80.26-5.96 79.99-7.85 79.99-10L79.99-10 79.99-23.5 76.24-23.5 76.24-27.5 79.99-27.5 79.99-32.73 84.62-35.5 84.62-27.5 93.12-27.5 92.62-23.5 84.74-23.5ZM99.99-11.13L99.99-15 112.49-15 112.49-11.13 99.99-11.13ZM140.14-24.78L137.66-21.95Q136.69-22.83 135.35-23.38 134.01-23.93 132.59-23.93L132.59-23.93Q130.49-23.93 129.01-23.14 127.54-22.35 126.63-21 125.71-19.65 125.29-17.86 124.86-16.07 124.86-14.1L124.86-14.1Q124.86-12.05 125.25-10.19 125.64-8.33 126.56-6.9 127.49-5.48 129.03-4.64 130.56-3.8 132.86-3.8L132.86-3.8Q134.79-3.8 136.13-4.25 137.46-4.7 138.19-5.2L138.19-5.2 139.99-1.68Q138.59-0.73 136.73-0.15 134.86 0.43 132.51 0.43L132.51 0.43Q129.39 0.43 127.04-0.81 124.69-2.05 123.13-4.11 121.56-6.18 120.78-8.86 119.99-11.55 119.99-14.43L119.99-14.43Q119.99-17.03 120.75-19.46 121.51-21.9 123.08-23.78 124.64-25.65 127.03-26.79 129.41-27.93 132.64-27.93L132.64-27.93Q134.94-27.93 136.75-27.21 138.56-26.5 140.14-24.78L140.14-24.78ZM152.24-20.83L152.24 0 147.49 0 147.49-35 146.99-40 152.24-40.5 152.24-23.75 154.46-26.63Q155.44-27.18 156.79-27.55 158.14-27.93 159.74-27.93L159.74-27.93Q163.49-27.93 165.49-25.43 167.49-22.93 167.49-18.25L167.49-18.25 167.49 0 162.74 0 162.74-17.73Q162.74-19.4 162.45-20.58 162.16-21.75 161.64-22.5 161.11-23.25 160.34-23.59 159.56-23.93 158.59-23.93L158.59-23.93Q157.61-23.93 156.69-23.69 155.76-23.45 154.94-23.04 154.11-22.63 153.42-22.06 152.74-21.5 152.24-20.83L152.24-20.83ZM194.98-4.5L195.48 0 190.23 0 190.23-4.05 187.88-1.25Q187.46-0.93 186.91-0.63 186.36-0.33 185.8-0.09 185.23 0.15 184.67 0.29 184.11 0.43 183.63 0.43L183.63 0.43Q181.76 0.43 180.05-0.16 178.33-0.75 177.05-1.89 175.76-3.03 175-4.71 174.23-6.4 174.23-8.6L174.23-8.6Q174.23-10.93 175.17-12.64 176.11-14.35 177.57-15.49 179.03-16.63 180.83-17.19 182.63-17.75 184.36-17.75L184.36-17.75Q185.78-17.75 186.87-17.6 187.96-17.45 188.71-17.25L188.71-17.25Q189.58-17.03 190.23-16.75L190.23-16.75 190.23-17.63Q190.23-19.1 190.06-20.28 189.88-21.45 189.35-22.26 188.81-23.08 187.8-23.5 186.78-23.93 185.11-23.93L185.11-23.93Q183.76-23.93 182.51-23.74 181.26-23.55 180.28-23.33L180.28-23.33Q179.13-23.05 178.16-22.75L178.16-22.75 176.36-26.1Q177.46-26.6 178.86-27L178.86-27Q180.06-27.35 181.71-27.64 183.36-27.93 185.36-27.93L185.36-27.93Q188.23-27.93 190.11-27.15 191.98-26.38 193.06-24.98 194.13-23.58 194.56-21.61 194.98-19.65 194.98-17.25L194.98-17.25 194.98-4.5ZM190.23-6.85L190.23-13.33Q189.53-13.43 188.73-13.53L188.73-13.53Q188.06-13.6 187.18-13.68 186.31-13.75 185.36-13.75L185.36-13.75Q183.96-13.75 182.8-13.48 181.63-13.2 180.78-12.59 179.93-11.98 179.46-11 178.98-10.03 178.98-8.63L178.98-8.63Q178.98-7.5 179.36-6.58 179.73-5.65 180.38-4.98 181.03-4.3 181.92-3.94 182.81-3.58 183.83-3.58L183.83-3.58Q184.31-3.58 184.85-3.71 185.38-3.85 185.92-4.08 186.46-4.3 187-4.6 187.53-4.9 188.01-5.2L188.01-5.2Q189.13-5.93 190.23-6.85L190.23-6.85ZM208.48-23.5L208.48-9.4Q208.48-7.75 208.67-6.64 208.86-5.53 209.22-4.84 209.58-4.15 210.12-3.86 210.66-3.58 211.36-3.58L211.36-3.58Q211.91-3.58 212.36-3.64 212.81-3.7 213.13-3.8L213.13-3.8Q213.51-3.9 213.81-4.03L213.81-4.03 215.53-1Q215.33-0.8 214.89-0.56 214.46-0.33 213.86-0.1 213.26 0.13 212.49 0.28 211.73 0.43 210.86 0.43L210.86 0.43Q208.61 0.43 207.21-0.4 205.81-1.23 205.03-2.65 204.26-4.08 203.99-5.96 203.73-7.85 203.73-10L203.73-10 203.73-23.5 199.98-23.5 199.98-27.5 203.73-27.5 203.73-32.73 208.36-35.5 208.36-27.5 216.86-27.5 216.36-23.5 208.48-23.5Z" fill="white"></path></g></svg></g></svg></g></svg></g></svg></g><g transform="matrix(1,0,0,1,437.9252706565152,0)"><svg viewBox="0 0 104.21597294199859 104.21597294199859" height="104.21597294199859" width="104.21597294199859"><g><svg xmlns="http://www.w3.org/2000/svg" xmlns:xlink="http://www.w3.org/1999/xlink" version="1.1" x="0" y="0" viewBox="7.5 7.5 85 85" style="enable-background:new 0 0 100 100;" xml:space="preserve" height="104.21597294199859" width="104.21597294199859" class="icon-icon-0" data-fill-palette-color="accent" id="SvgjsSvg2966"><g fill="black"><path class="" d="M15 92.5H85C89.1 92.5 92.5 89.1 92.5 85V15C92.5 10.9 89.1 7.5 85 7.5H15C10.9 7.5 7.5 10.9 7.5 15V85C7.5 89.1 10.9 92.5 15 92.5M15 15H85V30H15zM15 35H85V85H15z" fill="black"></path><rect x="75" y="20" class="" width="5" height="5" fill="black"></rect><rect x="65" y="20" class="" width="5" height="5" fill="black"></rect><rect x="55" y="20" class="" width="5" height="5" fill="black"></rect></g></svg></g></svg></g></svg></g><defs><mask></mask></defs></svg><rect width="395.52" height="76.03092755758803" fill="black" stroke="none" visibility="hidden"></rect></g></mask><linearGradient x1="0" x2="1" y1="0.548" y2="0.55" id="0b6cf1d4-673c-435e-9c36-982114b1126a"><stop stop-color="#ff6cab" offset="0"></stop><stop stop-color="#7366ff" offset="1"></stop></linearGradient><rect width="395.52" height="76.03092755758803" fill="url(#0b6cf1d4-673c-435e-9c36-982114b1126a)" mask="url(#cb1bbc12-269c-438f-9d57-a65f4d13beca)" data-fill-palette-color="primary"></rect><mask id="76102576-1800-4d3e-b030-469c163e0174"><g id="SvgjsG2994"><svg viewBox="0 0 395.52 76.03092755758803" height="76.03092755758803" width="395.52"><g><svg viewBox="0 0 542.1412435985137 104.21597294199859" height="76.03092755758803" width="395.52"><g></g><g transform="matrix(1,0,0,1,0,14.403220573025855)"><svg viewBox="0 0 395.52 75.40953179594688" height="75.40953179594688" width="395.52"><g id="SvgjsG2993"><svg viewBox="0 0 395.52 75.40953179594688" height="75.40953179594688" width="395.52" id="SvgjsSvg2992"><g><svg viewBox="0 0 395.52 75.40953179594688" height="75.40953179594688" width="395.52"><g transform="matrix(1,0,0,1,0,0)"><svg width="395.52" viewBox="2.23 -40.5 214.63000000000002 40.93" height="75.40953179594688" data-palette-color="url(#0b6cf1d4-673c-435e-9c36-982114b1126a)"><g class="wordmark-text-0" data-fill-palette-color="primary" id="SvgjsG2991"></g></svg></g></svg></g></svg></g></svg></g><g transform="matrix(1,0,0,1,437.9252706565152,0)"><svg viewBox="0 0 104.21597294199859 104.21597294199859" height="104.21597294199859" width="104.21597294199859"><g><svg xmlns="http://www.w3.org/2000/svg" xmlns:xlink="http://www.w3.org/1999/xlink" version="1.1" x="0" y="0" viewBox="7.5 7.5 85 85" style="enable-background:new 0 0 100 100;" xml:space="preserve" height="104.21597294199859" width="104.21597294199859" class="icon-icon-0" data-fill-palette-color="accent" id="SvgjsSvg2990"><g fill="white"><path class="" d="M15 92.5H85C89.1 92.5 92.5 89.1 92.5 85V15C92.5 10.9 89.1 7.5 85 7.5H15C10.9 7.5 7.5 10.9 7.5 15V85C7.5 89.1 10.9 92.5 15 92.5M15 15H85V30H15zM15 35H85V85H15z" fill="white"></path><rect x="75" y="20" class="" width="5" height="5" fill="white"></rect><rect x="65" y="20" class="" width="5" height="5" fill="white"></rect><rect x="55" y="20" class="" width="5" height="5" fill="white"></rect></g></svg></g></svg></g></svg></g><defs><mask></mask></defs><mask><g id="SvgjsG2989"><svg viewBox="0 0 395.52 76.03092755758803" height="76.03092755758803" width="395.52"><g><svg viewBox="0 0 542.1412435985137 104.21597294199859" height="76.03092755758803" width="395.52"><g><rect width="6.800509399995303" height="75.7865794549266" x="413.3223806282599" y="14.214696743535995" fill="black" opacity="1" stroke-width="0" stroke="transparent" fill-opacity="1" class="rect-yte-0" rx="1%" id="SvgjsRect2988" data-palette-color="url(#0b6cf1d4-673c-435e-9c36-982114b1126a)"></rect></g><g transform="matrix(1,0,0,1,0,14.403220573025855)"><svg viewBox="0 0 395.52 75.40953179594688" height="75.40953179594688" width="395.52"><g id="SvgjsG2987"><svg viewBox="0 0 395.52 75.40953179594688" height="75.40953179594688" width="395.52" id="SvgjsSvg2986"><g><svg viewBox="0 0 395.52 75.40953179594688" height="75.40953179594688" width="395.52"><g transform="matrix(1,0,0,1,0,0)"><svg width="395.52" viewBox="2.23 -40.5 214.63000000000002 40.93" height="75.40953179594688" data-palette-color="url(#0b6cf1d4-673c-435e-9c36-982114b1126a)"><g class="wordmark-text-0" data-fill-palette-color="primary" id="SvgjsG2985"><path d="M25.73-5.75L27.65-2.6Q25.6-0.95 23.13-0.26 20.65 0.43 17.7 0.43L17.7 0.43Q14.1 0.43 11.23-1.14 8.35-2.7 6.35-5.38 4.35-8.05 3.29-11.63 2.23-15.2 2.23-19.25L2.23-19.25Q2.23-23.03 3.19-26.41 4.15-29.8 6.13-32.36 8.1-34.93 11.13-36.43 14.15-37.93 18.28-37.93L18.28-37.93Q21.15-37.93 23.71-37.01 26.28-36.1 28.08-34.38L28.08-34.38 25.83-31.7Q24.63-32.5 22.81-33.1 21-33.7 18.68-33.7L18.68-33.7Q15.63-33.7 13.5-32.55 11.38-31.4 10.03-29.44 8.68-27.48 8.06-24.86 7.45-22.25 7.45-19.33L7.45-19.33Q7.45-17.6 7.73-15.79 8-13.98 8.56-12.25 9.13-10.53 10.01-9 10.9-7.48 12.11-6.33 13.33-5.18 14.88-4.5 16.43-3.83 18.35-3.83L18.35-3.83Q19.48-3.83 20.4-3.93 21.33-4.03 22.19-4.25 23.05-4.48 23.9-4.84 24.75-5.2 25.73-5.75L25.73-5.75ZM39.75-20.83L39.75 0 35 0 35-35 34.5-40 39.75-40.5 39.75-23.75 41.97-26.63Q42.95-27.18 44.3-27.55 45.65-27.93 47.25-27.93L47.25-27.93Q51-27.93 53-25.43 55-22.93 55-18.25L55-18.25 55 0 50.25 0 50.25-17.73Q50.25-19.4 49.96-20.58 49.67-21.75 49.15-22.5 48.62-23.25 47.85-23.59 47.07-23.93 46.1-23.93L46.1-23.93Q45.12-23.93 44.2-23.69 43.27-23.45 42.45-23.04 41.62-22.63 40.94-22.06 40.25-21.5 39.75-20.83L39.75-20.83ZM69.75-26.88L69.75 0 65 0 65-26.38 69.75-26.88ZM64.84-32.5L64.84-37.5 69.9-37.5 69.9-32.5 64.84-32.5ZM84.74-23.5L84.74-9.4Q84.74-7.75 84.93-6.64 85.12-5.53 85.48-4.84 85.84-4.15 86.38-3.86 86.92-3.58 87.62-3.58L87.62-3.58Q88.17-3.58 88.62-3.64 89.07-3.7 89.39-3.8L89.39-3.8Q89.77-3.9 90.07-4.03L90.07-4.03 91.79-1Q91.59-0.8 91.16-0.56 90.72-0.33 90.12-0.1 89.52 0.13 88.76 0.28 87.99 0.43 87.12 0.43L87.12 0.43Q84.87 0.43 83.47-0.4 82.07-1.23 81.29-2.65 80.52-4.08 80.26-5.96 79.99-7.85 79.99-10L79.99-10 79.99-23.5 76.24-23.5 76.24-27.5 79.99-27.5 79.99-32.73 84.62-35.5 84.62-27.5 93.12-27.5 92.62-23.5 84.74-23.5ZM99.99-11.13L99.99-15 112.49-15 112.49-11.13 99.99-11.13ZM140.14-24.78L137.66-21.95Q136.69-22.83 135.35-23.38 134.01-23.93 132.59-23.93L132.59-23.93Q130.49-23.93 129.01-23.14 127.54-22.35 126.63-21 125.71-19.65 125.29-17.86 124.86-16.07 124.86-14.1L124.86-14.1Q124.86-12.05 125.25-10.19 125.64-8.33 126.56-6.9 127.49-5.48 129.03-4.64 130.56-3.8 132.86-3.8L132.86-3.8Q134.79-3.8 136.13-4.25 137.46-4.7 138.19-5.2L138.19-5.2 139.99-1.68Q138.59-0.73 136.73-0.15 134.86 0.43 132.51 0.43L132.51 0.43Q129.39 0.43 127.04-0.81 124.69-2.05 123.13-4.11 121.56-6.18 120.78-8.86 119.99-11.55 119.99-14.43L119.99-14.43Q119.99-17.03 120.75-19.46 121.51-21.9 123.08-23.78 124.64-25.65 127.03-26.79 129.41-27.93 132.64-27.93L132.64-27.93Q134.94-27.93 136.75-27.21 138.56-26.5 140.14-24.78L140.14-24.78ZM152.24-20.83L152.24 0 147.49 0 147.49-35 146.99-40 152.24-40.5 152.24-23.75 154.46-26.63Q155.44-27.18 156.79-27.55 158.14-27.93 159.74-27.93L159.74-27.93Q163.49-27.93 165.49-25.43 167.49-22.93 167.49-18.25L167.49-18.25 167.49 0 162.74 0 162.74-17.73Q162.74-19.4 162.45-20.58 162.16-21.75 161.64-22.5 161.11-23.25 160.34-23.59 159.56-23.93 158.59-23.93L158.59-23.93Q157.61-23.93 156.69-23.69 155.76-23.45 154.94-23.04 154.11-22.63 153.42-22.06 152.74-21.5 152.24-20.83L152.24-20.83ZM194.98-4.5L195.48 0 190.23 0 190.23-4.05 187.88-1.25Q187.46-0.93 186.91-0.63 186.36-0.33 185.8-0.09 185.23 0.15 184.67 0.29 184.11 0.43 183.63 0.43L183.63 0.43Q181.76 0.43 180.05-0.16 178.33-0.75 177.05-1.89 175.76-3.03 175-4.71 174.23-6.4 174.23-8.6L174.23-8.6Q174.23-10.93 175.17-12.64 176.11-14.35 177.57-15.49 179.03-16.63 180.83-17.19 182.63-17.75 184.36-17.75L184.36-17.75Q185.78-17.75 186.87-17.6 187.96-17.45 188.71-17.25L188.71-17.25Q189.58-17.03 190.23-16.75L190.23-16.75 190.23-17.63Q190.23-19.1 190.06-20.28 189.88-21.45 189.35-22.26 188.81-23.08 187.8-23.5 186.78-23.93 185.11-23.93L185.11-23.93Q183.76-23.93 182.51-23.74 181.26-23.55 180.28-23.33L180.28-23.33Q179.13-23.05 178.16-22.75L178.16-22.75 176.36-26.1Q177.46-26.6 178.86-27L178.86-27Q180.06-27.35 181.71-27.64 183.36-27.93 185.36-27.93L185.36-27.93Q188.23-27.93 190.11-27.15 191.98-26.38 193.06-24.98 194.13-23.58 194.56-21.61 194.98-19.65 194.98-17.25L194.98-17.25 194.98-4.5ZM190.23-6.85L190.23-13.33Q189.53-13.43 188.73-13.53L188.73-13.53Q188.06-13.6 187.18-13.68 186.31-13.75 185.36-13.75L185.36-13.75Q183.96-13.75 182.8-13.48 181.63-13.2 180.78-12.59 179.93-11.98 179.46-11 178.98-10.03 178.98-8.63L178.98-8.63Q178.98-7.5 179.36-6.58 179.73-5.65 180.38-4.98 181.03-4.3 181.92-3.94 182.81-3.58 183.83-3.58L183.83-3.58Q184.31-3.58 184.85-3.71 185.38-3.85 185.92-4.08 186.46-4.3 187-4.6 187.53-4.9 188.01-5.2L188.01-5.2Q189.13-5.93 190.23-6.85L190.23-6.85ZM208.48-23.5L208.48-9.4Q208.48-7.75 208.67-6.64 208.86-5.53 209.22-4.84 209.58-4.15 210.12-3.86 210.66-3.58 211.36-3.58L211.36-3.58Q211.91-3.58 212.36-3.64 212.81-3.7 213.13-3.8L213.13-3.8Q213.51-3.9 213.81-4.03L213.81-4.03 215.53-1Q215.33-0.8 214.89-0.56 214.46-0.33 213.86-0.1 213.26 0.13 212.49 0.28 211.73 0.43 210.86 0.43L210.86 0.43Q208.61 0.43 207.21-0.4 205.81-1.23 205.03-2.65 204.26-4.08 203.99-5.96 203.73-7.85 203.73-10L203.73-10 203.73-23.5 199.98-23.5 199.98-27.5 203.73-27.5 203.73-32.73 208.36-35.5 208.36-27.5 216.86-27.5 216.36-23.5 208.48-23.5Z" fill="black"></path></g></svg></g></svg></g></svg></g></svg></g><g transform="matrix(1,0,0,1,437.9252706565152,0)"><svg viewBox="0 0 104.21597294199859 104.21597294199859" height="104.21597294199859" width="104.21597294199859"><g><svg xmlns="http://www.w3.org/2000/svg" xmlns:xlink="http://www.w3.org/1999/xlink" version="1.1" x="0" y="0" viewBox="7.5 7.5 85 85" style="enable-background:new 0 0 100 100;" xml:space="preserve" height="104.21597294199859" width="104.21597294199859" class="icon-icon-0" data-fill-palette-color="accent" id="SvgjsSvg2984"><g fill="black"><path class="" d="M15 92.5H85C89.1 92.5 92.5 89.1 92.5 85V15C92.5 10.9 89.1 7.5 85 7.5H15C10.9 7.5 7.5 10.9 7.5 15V85C7.5 89.1 10.9 92.5 15 92.5M15 15H85V30H15zM15 35H85V85H15z" fill="black"></path><rect x="75" y="20" class="" width="5" height="5" fill="black"></rect><rect x="65" y="20" class="" width="5" height="5" fill="black"></rect><rect x="55" y="20" class="" width="5" height="5" fill="black"></rect></g></svg></g></svg></g></svg></g><defs><mask></mask></defs></svg><rect width="395.52" height="76.03092755758803" fill="black" stroke="none" visibility="hidden"></rect></g></mask></svg><rect width="395.52" height="76.03092755758803" fill="black" stroke="none" visibility="hidden"></rect></g></mask><linearGradient x1="0" x2="1" y1="0.548" y2="0.55" id="d1ff5391-c6f9-408f-bf30-a81b962d723e"><stop stop-color="#ff6cab" offset="0"></stop><stop stop-color="#7366ff" offset="1"></stop></linearGradient><rect width="395.52" height="76.03092755758803" fill="url(#d1ff5391-c6f9-408f-bf30-a81b962d723e)" mask="url(#76102576-1800-4d3e-b030-469c163e0174)" data-fill-palette-color="accent"></rect></svg><rect width="395.52" height="76.03092755758803" fill="none" stroke="none" visibility="hidden"></rect></g></svg></g></svg>